<mxfile host="65bd71144e">
    <diagram id="57Nj7Xa1dTi2FFKFMWXx" name="Page-1">
        <mxGraphModel dx="869" dy="485" grid="1" gridSize="10" guides="1" tooltips="1" connect="1" arrows="1" fold="1" page="1" pageScale="1" pageWidth="850" pageHeight="1100" math="0" shadow="0">
            <root>
                <mxCell id="0"/>
                <mxCell id="1" parent="0"/>
                <mxCell id="9" value="" style="edgeStyle=none;html=1;" edge="1" parent="1" source="2" target="8">
                    <mxGeometry relative="1" as="geometry"/>
                </mxCell>
                <mxCell id="10" value="" style="edgeStyle=none;html=1;" edge="1" parent="1" source="2" target="8">
                    <mxGeometry relative="1" as="geometry"/>
                </mxCell>
                <mxCell id="12" style="edgeStyle=none;html=1;" edge="1" parent="1" source="2" target="11">
                    <mxGeometry relative="1" as="geometry"/>
                </mxCell>
                <mxCell id="14" style="edgeStyle=none;html=1;entryX=0;entryY=0.5;entryDx=0;entryDy=0;" edge="1" parent="1" source="2" target="13">
                    <mxGeometry relative="1" as="geometry"/>
                </mxCell>
                <mxCell id="2" value="Quesiotn" style="rounded=1;whiteSpace=wrap;html=1;arcSize=34;" vertex="1" parent="1">
                    <mxGeometry x="80" y="490" width="60" height="30" as="geometry"/>
                </mxCell>
                <mxCell id="4" value="Player answer" style="rounded=1;whiteSpace=wrap;html=1;arcSize=34;" vertex="1" parent="1">
                    <mxGeometry x="190" y="380" width="60" height="30" as="geometry"/>
                </mxCell>
                <mxCell id="16" value="" style="edgeStyle=none;html=1;" edge="1" parent="1" source="8" target="15">
                    <mxGeometry relative="1" as="geometry"/>
                </mxCell>
                <mxCell id="8" value="Answer1" style="rounded=1;whiteSpace=wrap;html=1;arcSize=34;" vertex="1" parent="1">
                    <mxGeometry x="190" y="440" width="60" height="30" as="geometry"/>
                </mxCell>
                <mxCell id="22" style="edgeStyle=none;html=1;entryX=0;entryY=0.5;entryDx=0;entryDy=0;" edge="1" parent="1" source="11" target="20">
                    <mxGeometry relative="1" as="geometry"/>
                </mxCell>
                <mxCell id="11" value="Answer2" style="rounded=1;whiteSpace=wrap;html=1;arcSize=34;" vertex="1" parent="1">
                    <mxGeometry x="190" y="490" width="60" height="30" as="geometry"/>
                </mxCell>
                <mxCell id="23" value="" style="edgeStyle=none;html=1;" edge="1" parent="1" source="13" target="21">
                    <mxGeometry relative="1" as="geometry"/>
                </mxCell>
                <mxCell id="13" value="Answer3" style="rounded=1;whiteSpace=wrap;html=1;arcSize=34;" vertex="1" parent="1">
                    <mxGeometry x="190" y="535" width="60" height="30" as="geometry"/>
                </mxCell>
                <mxCell id="15" value="dialog" style="rounded=1;whiteSpace=wrap;html=1;arcSize=34;" vertex="1" parent="1">
                    <mxGeometry x="330" y="440" width="60" height="30" as="geometry"/>
                </mxCell>
                <mxCell id="20" value="dialog" style="rounded=1;whiteSpace=wrap;html=1;arcSize=34;" vertex="1" parent="1">
                    <mxGeometry x="330" y="490" width="60" height="30" as="geometry"/>
                </mxCell>
                <mxCell id="21" value="dialog" style="rounded=1;whiteSpace=wrap;html=1;arcSize=34;" vertex="1" parent="1">
                    <mxGeometry x="330" y="535" width="60" height="30" as="geometry"/>
                </mxCell>
                <mxCell id="24" value="" style="rounded=0;whiteSpace=wrap;html=1;" vertex="1" parent="1">
                    <mxGeometry x="50" y="690" width="120" height="60" as="geometry"/>
                </mxCell>
            </root>
        </mxGraphModel>
    </diagram>
</mxfile>